HIERARCHY
ROOT Hips
{
	OFFSET 0.000000 0.000000 0.000000
	CHANNELS 6 Xposition Yposition Zposition Xrotation Yrotation Zrotation
	JOINT LeftUpLeg_virtual
	{
		OFFSET 0.000000 0.000000 0.000000
		CHANNELS 3 Xrotation Yrotation Zrotation
		JOINT LeftUpLeg
		{
			OFFSET 13.026900 -6.336304 -1.092800
			CHANNELS 3 Xrotation Yrotation Zrotation
			JOINT LeftLeg
			{
				OFFSET 0.524474 -46.096886 9.782700
				CHANNELS 3 Xrotation Yrotation Zrotation
				JOINT LeftFoot
				{
					OFFSET -0.524474 -53.427422 -12.948200
					CHANNELS 3 Xrotation Yrotation Zrotation
					JOINT LeftToeBase
					{
						OFFSET 0.192200 -14.009700 16.364100
						CHANNELS 3 Xrotation Yrotation Zrotation
						JOINT LeftToe_End
						{
							OFFSET -1.784700 -0.561700 9.474800
							CHANNELS 3 Xrotation Yrotation Zrotation
							End Site
							{
								OFFSET 0 0 0
							}
						}
					}
				}
			}
		}
	}
	JOINT RightUpLeg_virtual
	{
		OFFSET 0.000000 0.000000 0.000000
		CHANNELS 3 Xrotation Yrotation Zrotation
		JOINT RightUpLeg
		{
			OFFSET -12.883000 -6.336304 -1.092800
			CHANNELS 3 Xrotation Yrotation Zrotation
			JOINT RightLeg
			{
				OFFSET -0.524587 -46.096825 9.782800
				CHANNELS 3 Xrotation Yrotation Zrotation
				JOINT RightFoot
				{
					OFFSET 0.524587 -53.427383 -12.948300
					CHANNELS 3 Xrotation Yrotation Zrotation
					JOINT RightToeBase
					{
						OFFSET -0.192200 -14.009700 16.364100
						CHANNELS 3 Xrotation Yrotation Zrotation
						JOINT RightToe_End
						{
							OFFSET 1.784700 -0.561700 9.474800
							CHANNELS 3 Xrotation Yrotation Zrotation
							End Site
							{
								OFFSET 0 0 0
							}
						}
					}
				}
			}
		}
	}
	JOINT Spine_virtual
	{
		OFFSET 0.000000 0.000000 0.000000
		CHANNELS 3 Xrotation Yrotation Zrotation
		JOINT Spine
		{
			OFFSET 0.072000 7.257294 -0.789700
			CHANNELS 3 Xrotation Yrotation Zrotation
			JOINT Spine1
			{
				OFFSET 0.000000 12.508769 -0.658067
				CHANNELS 3 Xrotation Yrotation Zrotation
				JOINT Spine1_split
				{
					OFFSET 0.000000 12.508769 -0.658067
					CHANNELS 3 Xrotation Yrotation Zrotation
					JOINT Spine2
					{
						OFFSET 0.000000 12.508769 -0.658067
						CHANNELS 3 Xrotation Yrotation Zrotation
						JOINT Neck_virtual
						{
							OFFSET 0.000000 0.000000 0.000000
							CHANNELS 3 Xrotation Yrotation Zrotation
							JOINT Neck
							{
								OFFSET 0.000000 14.033295 7.520400
								CHANNELS 3 Xrotation Yrotation Zrotation
								JOINT Head
								{
									OFFSET 0.000000 8.198502 5.703100
									CHANNELS 3 Xrotation Yrotation Zrotation
									JOINT HeadTop_End
									{
										OFFSET 0.000000 17.760803 13.332701
										CHANNELS 3 Xrotation Yrotation Zrotation
										End Site
										{
											OFFSET 0 0 0
										}
									}
								}
							}
						}
						JOINT LeftShoulder_virtual
						{
							OFFSET 0.000000 0.000000 0.000000
							CHANNELS 3 Xrotation Yrotation Zrotation
							JOINT LeftShoulder
							{
								OFFSET 6.292450 5.785301 -0.669000
								CHANNELS 3 Xrotation Yrotation Zrotation
								JOINT LeftShoulder_split
								{
									OFFSET 6.292450 5.785301 -0.669000
									CHANNELS 3 Xrotation Yrotation Zrotation
									JOINT LeftArm
									{
										OFFSET 13.907140 -6.093903 1.965100
										CHANNELS 3 Xrotation Yrotation Zrotation
										JOINT LeftForeArm
										{
											OFFSET 34.140198 0.000000 0.000000
											CHANNELS 3 Xrotation Yrotation Zrotation
											JOINT LeftHand
											{
												OFFSET 40.960209 0.000000 0.000000
												CHANNELS 3 Xrotation Yrotation Zrotation
												End Site
												{
													OFFSET 0 0 0
												}
											}
										}
									}
								}
							}
						}
						JOINT RightShoulder_virtual
						{
							OFFSET 0.000000 0.000000 0.000000
							CHANNELS 3 Xrotation Yrotation Zrotation
							JOINT RightShoulder
							{
								OFFSET -6.292450 5.785301 -0.669000
								CHANNELS 3 Xrotation Yrotation Zrotation
								JOINT RightShoulder_split
								{
									OFFSET -6.292450 5.785301 -0.669000
									CHANNELS 3 Xrotation Yrotation Zrotation
									JOINT RightArm
									{
										OFFSET -13.907140 -6.093903 1.965100
										CHANNELS 3 Xrotation Yrotation Zrotation
										JOINT RightForeArm
										{
											OFFSET -34.140198 0.000000 0.000000
											CHANNELS 3 Xrotation Yrotation Zrotation
											JOINT RightHand
											{
												OFFSET -40.960209 0.000000 0.000000
												CHANNELS 3 Xrotation Yrotation Zrotation
												End Site
												{
													OFFSET 0 0 0
												}
											}
										}
									}
								}
							}
						}
					}
				}
			}
		}
	}
}
MOTION
Frames: 5
Frame Time: 0.03333333
-1.111165 101.148750 0.434509 0.000000 0.000000 0.000000 3.032225 -58.328477 6.707862 -36.056804 9.366524 25.451310 41.733241 -7.555507 -9.726300 -7.259325 -2.461429 -9.583444 -0.327617 1.238420 0.837260 0.000000 0.000000 0.000000 3.032225 -58.328477 6.707862 -33.212847 -7.748440 -26.040065 46.179978 2.592801 -7.371167 -16.829631 3.005737 21.139347 -0.322749 -0.997301 -0.837142 0.000000 0.000000 0.000000 3.032225 -58.328477 6.707862 11.191923 0.157684 -2.923559 8.434584 0.027698 -5.592316 0.000000 0.000000 0.000000 0.000000 0.000000 0.000000 8.457046 0.027884 -5.591869 -21.555737 25.063377 12.062608 -0.294014 25.465836 -3.208972 0.000000 0.000000 0.000000 8.457046 0.027884 -5.591869 -6.221661 -11.503795 -4.023837 0.000000 0.000000 0.000000 -23.061662 9.569086 -36.639727 0.046285 -43.170836 -0.011040 0.000000 0.000000 0.000000 8.457046 0.027884 -5.591869 -5.488241 10.658242 2.466560 0.000000 0.000000 0.000000 -41.473165 -26.756158 30.079470 -155.046250 68.136048 156.693241 0.000000 0.000000 0.000000 
-1.052503 101.160858 0.612564 0.000000 0.000000 0.000000 3.077477 -58.269621 6.727903 -36.110957 9.380774 25.368086 41.823150 -7.589016 -9.746136 -7.340864 -2.468549 -9.455290 -0.327636 1.238445 0.837270 0.000000 0.000000 0.000000 3.077477 -58.269621 6.727903 -33.125492 -7.750570 -26.137787 46.026483 2.578244 -7.355832 -16.772687 2.991351 21.265236 -0.322769 -0.997429 -0.837155 0.000000 0.000000 0.000000 3.077477 -58.269621 6.727903 11.191927 0.159600 -2.918918 8.427928 0.021797 -5.590526 0.000000 0.000000 0.000000 0.000000 0.000000 0.000000 8.450537 0.024361 -5.590742 -21.522819 24.948427 12.125789 -0.210771 25.320596 -3.422928 0.000000 0.000000 0.000000 8.450537 0.024361 -5.590742 -6.234554 -11.512583 -4.088059 0.000000 0.000000 0.000000 -23.549884 9.594472 -36.642575 0.138472 -42.979273 0.153737 0.000000 0.000000 0.000000 8.450537 0.024361 -5.590742 -5.511178 10.663430 2.580823 0.000000 0.000000 0.000000 -40.669433 -26.535563 30.926591 -149.908118 67.121587 150.633675 0.000000 0.000000 0.000000 
-0.881965 101.196877 1.109821 0.000000 0.000000 0.000000 3.120685 -58.212090 6.716972 -36.169185 9.432355 25.156437 42.085560 -7.605547 -9.795236 -7.596670 -2.482326 -9.134483 -0.327637 1.238425 0.837264 0.000000 0.000000 0.000000 3.120685 -58.212090 6.716972 -32.888081 -7.765487 -26.408862 45.601649 2.649861 -7.305680 -16.591662 2.967270 21.558976 -0.322772 -0.997379 -0.837135 0.000000 0.000000 0.000000 3.120685 -58.212090 6.716972 11.191282 0.154891 -2.903830 8.401979 -0.002255 -5.583286 0.000000 0.000000 0.000000 0.000000 0.000000 0.000000 8.425058 0.008611 -5.583552 -21.431260 24.624162 12.298790 0.012603 24.910347 -4.012509 0.000000 0.000000 0.000000 8.425058 0.008611 -5.583552 -6.271300 -11.537112 -4.271441 0.000000 0.000000 0.000000 -24.278473 9.356762 -36.480102 0.390042 -42.425549 0.606444 0.000000 0.000000 0.000000 8.425058 0.008611 -5.583552 -5.562384 10.685537 2.911043 0.000000 0.000000 0.000000 -40.035434 -26.442456 31.521255 -146.616554 66.782584 146.173794 0.000000 0.000000 0.000000 
-0.614848 101.258072 1.880154 0.000000 0.000000 0.000000 3.175258 -58.157804 6.688471 -36.226521 9.520440 24.831347 42.478005 -7.599860 -9.865173 -7.993762 -2.504998 -8.652692 -0.327601 1.238559 0.837267 0.000000 0.000000 0.000000 3.175258 -58.157804 6.688471 -32.518920 -7.799291 -26.821948 44.921068 2.790917 -7.222899 -16.293087 2.939599 21.995156 -0.322764 -0.997390 -0.837133 0.000000 0.000000 0.000000 3.175258 -58.157804 6.688471 11.190328 0.145454 -2.880722 8.360035 -0.037548 -5.562299 0.000000 0.000000 0.000000 0.000000 0.000000 0.000000 8.383855 -0.015510 -5.569305 -21.297529 24.120548 12.555801 0.334048 24.270985 -4.891901 0.000000 0.000000 0.000000 8.383855 -0.015510 -5.569305 -6.329111 -11.574848 -4.560062 0.000000 0.000000 0.000000 -25.140963 8.962309 -36.205521 0.758584 -41.741239 1.278134 0.000000 0.000000 0.000000 8.383855 -0.015510 -5.569305 -5.644375 10.721006 3.438213 0.000000 0.000000 0.000000 -39.567761 -26.416489 31.881219 -150.463644 68.711887 148.189724 0.000000 0.000000 0.000000 
-0.266695 101.345314 2.878105 0.000000 0.000000 0.000000 3.264101 -58.110539 6.662213 -36.280230 9.643529 24.408036 42.955586 -7.562579 -9.946614 -8.501018 -2.538572 -8.041269 -0.327604 1.238504 0.837244 0.000000 0.000000 0.000000 3.264101 -58.110539 6.662213 -32.040715 -7.860136 -27.344396 43.995929 2.987377 -7.108586 -15.880690 2.913753 22.553187 -0.336998 -0.997159 -0.812480 0.000000 0.000000 0.000000 3.264101 -58.110539 6.662213 11.189087 0.132523 -2.851537 8.303189 -0.083924 -5.533897 0.000000 0.000000 0.000000 0.000000 0.000000 0.000000 8.327963 -0.047469 -5.550306 -21.135259 23.468074 12.872204 0.708169 23.440477 -5.974286 0.000000 0.000000 0.000000 8.327963 -0.047469 -5.550306 -6.405208 -11.623202 -4.939974 0.000000 0.000000 0.000000 -26.020806 8.535689 -35.875647 1.208663 -41.176895 2.113466 0.000000 0.000000 0.000000 8.327963 -0.047469 -5.550306 -5.754559 10.768348 4.143352 0.000000 0.000000 0.000000 -39.267420 -26.376638 32.016682 -147.877489 69.610037 144.131731 0.000000 0.000000 0.000000 
